<?xml version="1.0" encoding="utf-8"?>
<svg xmlns="http://www.w3.org/2000/svg" viewBox="106.8808 245.8303 28.079 28" width="28.079px" height="28px"><g transform="matrix(1, 0, 0, 1, 3.9788100719451904, -17.904645919799805)" id="object-0"><path d="M 130.902 291.735 L 111.731 291.735 C 106.879 291.735 102.902 287.837 102.902 282.985 L 102.902 263.735 L 122.152 263.735 C 127.004 263.735 130.981 267.712 130.981 272.565 L 130.981 291.735 L 130.902 291.735 Z" fill="#27C499" style="stroke-width: 1;"/><g><path d="M 117.379 268.985 C 118.731 268.985 119.845 269.224 120.879 269.701 C 121.833 270.178 122.549 270.815 123.106 271.61 C 123.663 272.485 123.902 273.44 123.902 274.633 C 123.902 275.826 123.663 276.86 123.106 277.656 C 122.549 278.531 121.833 279.167 120.879 279.565 C 119.924 280.042 118.731 280.281 117.379 280.281 L 113.64 280.281 L 113.64 286.485 L 112.129 286.485 C 110.936 286.485 109.902 285.531 109.902 284.258 L 109.902 268.985 L 117.379 268.985 Z M 116.822 277.417 C 117.936 277.417 118.731 277.178 119.288 276.701 C 119.845 276.224 120.083 275.508 120.083 274.633 C 120.083 273.678 119.845 273.042 119.288 272.565 C 118.731 272.087 117.936 271.849 116.822 271.849 L 113.72 271.849 L 113.72 277.417 L 116.822 277.417 Z" fill="#151B38" style="stroke-width: 1;"/></g></g></svg>